<?xml version="1.0" standalone="no"?>
<svg viewBox="0 0 200 200" xmlns="http://www.w3.org/2000/svg">
  <path fill="#8A3FFC" d="M42.9,-66.2C56.9,-57.7,70.6,-48.1,72.4,-35.6C74.1,-23.1,63.9,-7.7,56,4C48.1,15.8,42.4,23.8,35.8,30.4C29.1,37,21.5,42.2,13.1,44.7C4.7,47.1,-4.5,46.8,-16.2,47C-27.9,47.3,-42.1,48.1,-49.7,41.7C-57.2,35.4,-58.1,21.9,-55.3,10.8C-52.6,-0.4,-46.2,-9.3,-45.4,-24.7C-44.5,-40.1,-49.2,-62,-42.6,-73.9C-35.9,-85.8,-18,-87.7,-1.8,-84.9C14.4,-82.1,28.8,-74.7,42.9,-66.2Z" transform="translate(100 100)" />
</svg>
