<?xml version="1.0" standalone="no"?>
<svg viewBox="0 0 200 200" xmlns="http://www.w3.org/2000/svg">
  <path fill="#08BDBA" d="M44.3,-60.8C58.1,-50.9,70.5,-38.9,77.8,-23.6C85.1,-8.3,87.2,10.3,81.9,26.6C76.6,42.9,63.9,56.7,49.1,67.3C34.2,78,17.1,85.3,1.6,83.1C-13.8,80.9,-27.7,69,-42.2,58.3C-56.8,47.5,-72,37.9,-74.8,25.3C-77.6,12.6,-67.8,-3.1,-61.3,-18.9C-54.8,-34.7,-51.5,-50.6,-41.9,-61.8C-32.2,-73.1,-16.1,-79.8,-0.4,-79.2C15.2,-78.6,30.4,-70.7,44.3,-60.8Z" transform="translate(100 100)" />
</svg>
